<svg viewBox="0 0 200 200" xmlns="http://www.w3.org/2000/svg">
  <!-- Background circle -->
  <defs>
    <linearGradient id="fortressGradient" x1="0%" y1="0%" x2="100%" y2="100%">
      <stop offset="0%" style="stop-color:#3b82f6;stop-opacity:1" />
      <stop offset="100%" style="stop-color:#2563eb;stop-opacity:1" />
    </linearGradient>
    <radialGradient id="glowEffect">
      <stop offset="0%" style="stop-color:#3b82f6;stop-opacity:0.3" />
      <stop offset="100%" style="stop-color:#3b82f6;stop-opacity:0" />
    </radialGradient>
  </defs>

  <!-- Glow effect -->
  <circle cx="100" cy="100" r="95" fill="url(#glowEffect)" />

  <!-- Main fortress shield -->
  <path d="M 100 30 L 170 60 L 170 110 Q 170 150 100 170 Q 30 150 30 110 L 30 60 Z" 
        fill="url(#fortressGradient)" stroke="#1e293b" stroke-width="2"/>

  <!-- Central citadel tower -->
  <rect x="80" y="55" width="40" height="70" fill="#0a0e17" stroke="#3b82f6" stroke-width="2"/>

  <!-- Tower crenellations (fortress teeth) -->
  <rect x="75" y="50" width="8" height="12" fill="#3b82f6"/>
  <rect x="92" y="50" width="8" height="12" fill="#3b82f6"/>
  <rect x="117" y="50" width="8" height="12" fill="#3b82f6"/>

  <!-- Central tower beacon/glow -->
  <circle cx="100" cy="70" r="6" fill="#3b82f6" opacity="0.8"/>
  <circle cx="100" cy="70" r="8" fill="#3b82f6" opacity="0.3"/>

  <!-- Security bars/lattice pattern -->
  <line x1="85" y1="65" x2="115" y2="65" stroke="#3b82f6" stroke-width="1.5" opacity="0.6"/>
  <line x1="85" y1="80" x2="115" y2="80" stroke="#3b82f6" stroke-width="1.5" opacity="0.6"/>
  <line x1="85" y1="95" x2="115" y2="95" stroke="#3b82f6" stroke-width="1.5" opacity="0.6"/>
  <line x1="85" y1="110" x2="115" y2="110" stroke="#3b82f6" stroke-width="1.5" opacity="0.6"/>

  <!-- Shield accent lines -->
  <path d="M 65 85 L 50 100" stroke="#3b82f6" stroke-width="1.5" opacity="0.5"/>
  <path d="M 135 85 L 150 100" stroke="#3b82f6" stroke-width="1.5" opacity="0.5"/>

  <!-- Glow dots for "Intelligence" -->
  <circle cx="70" cy="125" r="3" fill="#3b82f6" opacity="0.7"/>
  <circle cx="100" cy="135" r="3" fill="#3b82f6" opacity="0.7"/>
  <circle cx="130" cy="125" r="3" fill="#3b82f6" opacity="0.7"/>
</svg>